<mxfile host="65bd71144e">
    <diagram id="YS8bB3KphnXR-7jCgH-k" name="Page-1">
        <mxGraphModel dx="1002" dy="585" grid="1" gridSize="10" guides="1" tooltips="1" connect="1" arrows="1" fold="1" page="1" pageScale="1" pageWidth="850" pageHeight="1100" math="0" shadow="0">
            <root>
                <mxCell id="0"/>
                <mxCell id="1" parent="0"/>
                <mxCell id="3" value="&lt;h1&gt;User Function Interface&lt;/h1&gt;" style="rounded=1;whiteSpace=wrap;html=1;" vertex="1" parent="1">
                    <mxGeometry x="100" y="90" width="690" height="120" as="geometry"/>
                </mxCell>
                <mxCell id="4" value="&lt;h1&gt;Application Layer&lt;/h1&gt;" style="rounded=1;whiteSpace=wrap;html=1;fontSize=18;" vertex="1" parent="1">
                    <mxGeometry x="100" y="340" width="690" height="110" as="geometry"/>
                </mxCell>
                <mxCell id="5" value="&lt;h1&gt;Data Access Layer&lt;/h1&gt;" style="rounded=1;whiteSpace=wrap;html=1;fontSize=18;" vertex="1" parent="1">
                    <mxGeometry x="100" y="580" width="690" height="100" as="geometry"/>
                </mxCell>
                <mxCell id="6" value="&lt;h1&gt;&lt;br&gt;&lt;/h1&gt;" style="rounded=1;whiteSpace=wrap;html=1;fontSize=18;" vertex="1" parent="1">
                    <mxGeometry x="90" y="830" width="690" height="490" as="geometry"/>
                </mxCell>
                <mxCell id="7" value="Infrastructure Layer" style="text;html=1;strokeColor=none;fillColor=none;align=center;verticalAlign=middle;whiteSpace=wrap;rounded=0;fontSize=41;fontStyle=1" vertex="1" parent="1">
                    <mxGeometry x="160" y="872" width="550" height="60" as="geometry"/>
                </mxCell>
                <mxCell id="8" value="" style="rounded=0;whiteSpace=wrap;html=1;fontSize=41;" vertex="1" parent="1">
                    <mxGeometry x="160" y="950" width="560" height="330" as="geometry"/>
                </mxCell>
                <mxCell id="10" value="&lt;font style=&quot;font-size: 20px;&quot;&gt;Cluster&lt;/font&gt;" style="rounded=0;whiteSpace=wrap;html=1;fontSize=41;" vertex="1" parent="1">
                    <mxGeometry x="160" y="950" width="130" height="40" as="geometry"/>
                </mxCell>
            </root>
        </mxGraphModel>
    </diagram>
</mxfile>